<?xml version="1.0" encoding="utf-8"?>
<!-- Generator: Adobe Illustrator 19.0.0, SVG Export Plug-In . SVG Version: 6.00 Build 0)  -->
<svg version="1.1" id="Ascom" xmlns="http://www.w3.org/2000/svg" xmlns:xlink="http://www.w3.org/1999/xlink" x="0px" y="0px"
	 viewBox="0 0 283.5 58.1" enable-background="new 0 0 283.5 58.1" xml:space="preserve">
<g>
	<path fill="#ED1C24" d="M37.2,56.7c-0.5-2.8-0.5-5.5-0.5-8.2h-0.2c-3.3,6-10.3,9.6-17,9.6C9.7,58.1,0,52.3,0,41.6
		c0-20.3,21.8-19,36.1-19c0-8.8-3.9-12-12.5-12c-6.1,0-12.2,2.4-17.1,6L6,4.2C11.7,1.6,19.1,0,25.3,0c16.6,0,24,6.6,24,23.4v33.3
		H37.2z M29.9,31.1c-6.4,0-16.1,1.1-16.1,9.6c0,5.2,4.7,6.8,9.1,6.8c9.6,0,13.2-8,13.2-16.4H29.9z"/>
	<path fill="#ED1C24" d="M69.6,58.1c-5.6,0-11.2-0.9-16.5-2.4l0.9-11.9c4.4,2.2,9.2,3.7,14.1,3.7c4.2,0,9.5-1.8,9.5-6.8
		c0-10.8-25.1-3.5-25.1-23.5C52.6,5,63.6,0,74.3,0c5.4,0,10.5,0.9,15.8,2L89.2,13c-4.6-1.7-8.1-2.4-13-2.4c-3.9,0-8.5,1.5-8.5,6.1
		c0,8.8,25.1,3.2,25.1,23.3C92.8,53,81.1,58.1,69.6,58.1z"/>
	<path fill="#ED1C24" d="M123.4,58.1c-17.9,0-27.3-12.2-27.3-29.3C96.2,12.4,105.9,0,123,0c4.7,0,9.4,0.5,14,1.9l-1.3,11.4
		c-3.2-1.5-6.3-2.1-9.8-2.1c-10.1,0-14.6,8.6-14.6,17.6c0,9.5,4.3,18.1,14.9,18.1c3.6,0,7.8-1.1,11.1-2.6l0.6,11.9
		C133.2,57.7,128.3,58.1,123.4,58.1z"/>
	<path fill="#ED1C24" d="M167.8,58.1c-17.1,0-29-11.5-29-28.7c0-17.3,11.6-29.4,29-29.4c17.4,0,29.1,12,29.1,29.4
		C196.9,46.7,184.9,58.1,167.8,58.1z M167.8,11.2c-9.4,0-13.9,8.1-13.9,16.6c0,9.2,3,19.1,13.9,19.1c11.1,0,14-9.8,14-19.1
		C181.8,19.2,177.2,11.2,167.8,11.2z"/>
	<path fill="#ED1C24" d="M269,56.7v-33c0-6-0.4-12.6-8.3-12.6c-9.6,0-10.8,11.5-10.8,18.7v26.9h-14.4v-33c0-6.1-0.4-12.6-8.3-12.6
		c-9.6,0-10.8,11.5-10.8,18.7v26.9H202V1.3h13.5V9h0.2c3.7-5.6,9.7-9,16.3-9c7.5,0,13.2,2.8,16.5,9.7c3.2-6.4,10.4-9.7,17.4-9.7
		c13.8,0,17.5,9.7,17.5,21.8v35H269z"/>
</g>
</svg>
