<?xml version="1.0" encoding="utf-8"?>
<!-- Generator: Adobe Illustrator 15.1.0, SVG Export Plug-In . SVG Version: 6.00 Build 0)  -->
<!DOCTYPE svg PUBLIC "-//W3C//DTD SVG 1.1//EN" "http://www.w3.org/Graphics/SVG/1.1/DTD/svg11.dtd">
<svg version="1.1" id="Ebene_1" xmlns="http://www.w3.org/2000/svg" xmlns:xlink="http://www.w3.org/1999/xlink" x="0px" y="0px"
	 width="292.5px" height="96px" viewBox="0 0 292.5 96" enable-background="new 0 0 292.5 96" xml:space="preserve">
<g>
	<polyline fill="#DD0B2F" points="270.527,93.648 275.784,93.648 275.784,84.688 275.841,84.688 281.975,93.648 288.674,93.648 
		280.816,83.105 288.107,73.919 281.777,73.919 275.841,81.975 275.784,81.975 275.784,73.919 270.527,73.919 270.527,93.648 	"/>
	<polyline fill="#DD0B2F" points="111.551,93.648 116.808,93.648 116.808,85.195 123.026,85.195 123.026,93.648 128.284,93.648 
		128.284,73.917 123.026,73.917 123.026,81.465 116.808,81.465 116.808,73.917 111.551,73.917 111.551,93.648 	"/>
	<polyline fill="#DD0B2F" points="138.597,93.648 143.854,93.648 143.854,86.214 151.09,73.917 145.041,73.917 141.225,81.832 
		137.353,73.917 131.304,73.917 138.597,86.214 138.597,93.648 	"/>
	<path fill="#DD0B2F" d="M153.967,93.648h7.18c6.729,0,11.674-2.572,11.674-9.95c0-7.632-4.805-9.781-11.674-9.781h-7.18V93.648
		L153.967,93.648z M159.225,77.818h2.034c3.845,0,6.134,2.035,6.134,5.965c0,3.929-2.205,5.964-6.134,5.964h-2.034V77.818"/>
	<path fill="#DD0B2F" d="M176.984,93.648h5.257v-7.804h1.102c1.951,0,2.63,0.849,3.703,4.24l1.13,3.563h5.484l-1.922-5.371
		c-0.989-2.403-1.104-3.901-2.799-4.354v-0.056c2.545-0.594,3.787-2.348,3.787-4.977c0-3.393-2.854-4.976-6.358-4.976h-9.384V93.648
		L176.984,93.648z M182.241,77.648h1.385c2.007,0,3.845,0.34,3.845,2.177c0,2.231-2.148,2.29-3.845,2.29h-1.385V77.648"/>
	<path fill="#DD0B2F" d="M195.766,93.648h5.344l1.554-4.213h7.405l1.471,4.213h5.766l-7.603-19.731h-6.445L195.766,93.648
		L195.766,93.648z M208.824,85.705h-4.946l2.544-7.717h0.057L208.824,85.705"/>
	<path fill="#DD0B2F" d="M237.266,73.919h-5.257v11.363c0,2.601-0.707,4.805-3.392,4.805c-2.688,0-3.393-2.204-3.393-4.805V73.919
		h-5.259v12.239c0,5.398,3.505,7.83,8.65,7.83c5.144,0,8.647-2.432,8.647-7.83V73.919"/>
	<polyline fill="#DD0B2F" points="242.715,93.648 242.715,73.917 247.973,73.917 247.973,89.747 254.232,89.747 254.232,93.648 
		242.715,93.648 	"/>
	<rect x="258.604" y="73.917" fill="#DD0B2F" width="5.258" height="19.731"/>
	<path fill="#DD0B2F" d="M247.688,40.044l0.205-0.517C247.814,39.695,247.746,39.867,247.688,40.044L247.688,40.044z M56.458,3.842
		h21.755c2.709,0,4.818,2.196,4.818,4.905l-0.002,37.44L98.207,7.649c0.572-2.17,2.536-3.822,4.885-3.822h60.823
		c2.331,0,4.282,1.626,4.78,3.806l9.011,22.641l8.931-22.673c0.578-2.148,2.529-3.774,4.86-3.774h8.563
		c2.33,0,4.282,1.626,4.78,3.806l9.011,22.641l8.931-22.673c0.579-2.148,2.528-3.774,4.86-3.774h54.541
		c2.709,0,4.905,2.196,4.905,4.905v6.757c0,2.709-2.196,4.906-4.905,4.906h-18.904l-0.42,0.001c-1.189,0-1.922-0.072-2.824,1.872
		l-1.064,2.708h23.215c2.709,0,4.904,2.196,4.904,4.905v6.758c0,2.709-2.195,4.905-4.904,4.905h-24.076l-3.642,0.002
		c-1.204,0-1.938-0.063-2.856,1.954l-1.123,2.844h31.697c2.709,0,4.904,2.196,4.904,4.905v6.757c0,2.709-2.195,4.96-4.904,4.96
		h-19.188l-52.635,0.002l-0.985-0.002c-2.217,0-4.106-1.455-4.72-3.468l-8.881-22.531l-8.967,22.723
		c-0.68,1.904-2.502,3.276-4.631,3.276l-0.924,0.002l-13.792-0.002l-22.032,0.002h-2.26l-4.069-0.002
		c-2.081,0-3.867-1.34-4.584-3.188l-0.845-2.077c-0.625-1.197-1.51-1.369-2.534-1.369h-3.658l-11.987-0.011l-3.756,0.011
		c-1.204,0-2.215,0.237-2.838,2.095l-0.375,0.842c-0.565,2.111-2.482,3.713-4.75,3.713l-6.384-0.014l-0.189-0.008l-19.035,0.004
		l-21.711,0.021c-2.709,0-4.894-2.195-4.894-4.904V46.033c-0.115-1.096-1.042-1.95-2.168-1.95H38.877
		c-1.089,0-1.992,0.799-2.154,1.843v12.116c0,2.709-2.152,4.905-4.861,4.905H10.107c-2.709,0-4.905-2.196-4.905-4.905V8.732
		c0-2.709,2.196-4.905,4.905-4.905h21.755c2.709,0,4.839,2.196,4.839,4.905v12.139c0.125,1.079,1.007,1.915,2.122,1.915h10.518
		c1.129,0,2.096-0.858,2.212-1.957V8.747C51.553,6.038,53.749,3.842,56.458,3.842L56.458,3.842z M244.634,48.423
		c0-0.395,0.062-0.778,0.193-1.12l2.86-7.259c0.059-0.177,0.127-0.349,0.203-0.517c0.781-1.678,2.491-2.849,4.459-2.849h1.42
		l26.332-0.021c1.205,0,2.182-0.976,2.182-2.18v-2.405c0-1.204-0.977-2.18-2.182-2.18H256.05c-0.096,0.013-0.194,0.019-0.295,0.019
		c-1.438,0-2.604-1.301-2.604-2.905c0-0.49,0.108-0.952,0.302-1.357l2.56-6.515c0.572-2.079,2.475-3.618,4.729-3.618l0.368-0.009
		h18.992c1.203,0,2.181-0.976,2.181-2.18v-2.404c0-1.204-0.978-2.235-2.181-2.235L270.033,8.66l-36.446-0.001
		c-0.083,0.031-0.16,0.047-0.229,0.047h-3.598c-1.203,0-2.215,0.536-2.855,1.921l-8.754,22.241l-0.799,2l-0.82,1.884
		c-0.357,1.422-1.438,2.456-2.717,2.456c-1.237,0-2.291-0.968-2.682-2.319l-1.115-2.867L200.8,10.627
		c-0.642-1.385-1.653-1.921-2.856-1.921h-4.327c-1.204,0-2.216,0.536-2.857,1.921l-8.765,22.242l-1.52,3.864
		c-0.322,1.488-1.43,2.585-2.746,2.585c-1.227,0-2.271-0.949-2.67-2.28l-1.604-4.044l-8.8-22.367
		c-0.643-1.385-1.652-1.921-2.856-1.921h-10.519l-35.427-0.015L105.21,8.706c-1.204,0-2.215,0.536-2.857,1.921L86.252,51.418
		c-0.616,1.534-2.124,2.615-3.879,2.615c-2.304,0-4.172-1.868-4.172-4.172l0.001-39.013c0-1.204-0.976-2.18-2.18-2.18H58.621
		c-1.204,0-2.181,0.976-2.181,2.18v11.743l-0.054,0.169c0,2.709-2.218,4.906-4.927,4.906H36.744c-2.709,0-4.905-2.197-4.905-4.906
		v-9.681c0-0.131,0.011-0.258,0.033-0.382v-1.864c0-1.204-0.998-2.18-2.201-2.18H12.269c-1.204,0-2.18,0.976-2.18,2.18V55.96
		c0,1.204,0.976,2.181,2.18,2.181h17.402c1.203,0,2.179-0.977,2.179-2.181l0.001-11.428l0.004-0.423
		c0-2.709,2.196-4.905,4.905-4.905h14.715c2.709,0,4.905,2.196,4.905,4.905v9.681l-0.005,0.222v1.985
		c0,1.204,1.042,2.158,2.246,2.158l9.824-0.005l29.589-0.012h3.658c1.021,0,1.903-0.139,2.528-1.313l0.951-2.416
		c0.831-1.7,2.553-2.938,4.519-2.938l2.467-0.006h20.029l1.004,0.006c2.258,0,4.194,1.631,4.775,3.744l0.351,0.891
		c0.658,1.842,1.684,2.035,2.888,2.035h3.64l35.371,0.006c1.139-0.051,2.09-0.687,2.705-2.016l8.59-21.837l0.963-2.403l0.727-1.758
		c0.467-1.269,1.484-2.164,2.675-2.164c1.233,0,2.284,0.963,2.677,2.308l1.465,3.967l8.625,21.887
		c0.643,1.387,1.652,2.01,2.856,2.01h10.519l44.642,0.012l13.446,0.014c1.205,0,2.182-1.009,2.182-2.213v-2.514
		c0-1.203-0.977-2.181-2.182-2.181H247.42l-0.178,0.007C245.802,51.266,244.634,49.993,244.634,48.423L244.634,48.423z
		 M131.148,44.822l-18.708,0.043c-0.134,0.024-0.272,0.036-0.413,0.036c-1.306,0-2.364-1.059-2.364-2.365
		c0-0.256,0.041-0.503,0.116-0.734l9.328-24.15c0.258-1.069,1.22-1.863,2.368-1.863c1.228,0,2.244,0.909,2.412,2.091l9.098,23.148
		c0.302,0.397,0.481,0.893,0.481,1.43C133.466,43.748,132.432,44.797,131.148,44.822L131.148,44.822z M115.346,40.511h12.613
		l-0.272-0.036l-6.187-15.29L115.346,40.511"/>
</g>
</svg>
