<svg id="Ebene_1" data-name="Ebene 1" xmlns="http://www.w3.org/2000/svg" viewBox="0 0 841.56 131.81"><defs><style>.cls-1{fill:#00703c;}</style></defs><polygon class="cls-1" points="294.1 48.19 271.78 119.06 249.81 119.06 258.76 90.53 244.05 90.53 235.1 119.06 213.58 119.06 236.08 48.19 257.69 48.19 249.19 74.94 263.89 74.94 272.31 48.19 294.1 48.19 294.1 48.19"/><polygon class="cls-1" points="344.81 91.22 358.56 48.19 374.64 48.19 352.14 119.06 330.62 119.06 320.17 75.85 306.49 119.06 290.31 119.06 312.9 48.19 334.44 48.19 344.81 91.22 344.81 91.22"/><path class="cls-1" d="M204.15,103.46,199,119.05H164.73a9.21,9.21,0,0,1-6-2.12,8.9,8.9,0,0,1-3.23-5.4,30.92,30.92,0,0,1-.71-7q0-11.16,4.52-24.89,10.18-31.45,25.16-31.45h35.08l-5,15.59H194.41q-8.78,0-14.53,17.64A49.69,49.69,0,0,0,177.14,96a17.57,17.57,0,0,0,.26,3.26,4.82,4.82,0,0,0,5.23,4.23Z"/><path class="cls-1" d="M94.5,11.68q-7.12,0-11.28,4.83a14.83,14.83,0,0,0-3.76,10.07,14.35,14.35,0,0,0,.27,2.82l26.58,60.53a4.07,4.07,0,0,1-1,3.69,5.72,5.72,0,0,1-3.69,1.81H29.93l3.76-11.27L0,107.38l18.79,23.35,3.76-11.67H125.77q8.19,0,12.48-5.51a15.5,15.5,0,0,0,3.23-9.53,11.54,11.54,0,0,0-.14-1.88L114,41.34a4.74,4.74,0,0,1,1.41-4.7c1.3-1.16,2.44-1.61,3.42-1.34h26.85l-3.76,11.28,33.69-23.23L156.78,0,153,11.68Z"/><path class="cls-1" d="M481.69,48.19H460.08l-22.5,70.86h45.26L488,103.64H463.8l17.89-55.45Zm0,0H460.08l-22.5,70.86h45.26L488,103.64H463.8l17.89-55.45Zm0,0H460.08l-22.5,70.86h45.26L488,103.64H463.8l17.89-55.45Z"/><polygon class="cls-1" points="392.29 48.19 443.49 48.19 438.44 63.78 409.03 63.78 405.22 76 430.29 76 425.51 91.06 400.53 91.06 396.28 103.64 427.99 103.64 423.2 119.06 369.88 119.06 392.29 48.19 392.29 48.19"/><path class="cls-1" d="M672.76,103.46l-5.13,15.59H633.35a9.18,9.18,0,0,1-6-2.12,8.92,8.92,0,0,1-3.24-5.4,30.92,30.92,0,0,1-.71-7q0-11.16,4.52-24.89,10.18-31.45,25.16-31.45h35.08l-5,15.59H663q-8.78,0-14.53,17.64A49.69,49.69,0,0,0,645.75,96a18.48,18.48,0,0,0,.26,3.26,4.83,4.83,0,0,0,5.23,4.23Z"/><polygon class="cls-1" points="741.82 48.19 762.76 48.19 731.46 81.23 748.46 119.06 725.61 119.06 712.14 90.53 702.93 119.06 681.41 119.06 703.91 48.19 725.52 48.19 717.46 73.7 741.82 48.19 741.82 48.19"/><polygon class="cls-1" points="780.26 48.19 831.46 48.19 826.32 63.78 796.91 63.78 793.19 76 818.26 76 813.48 91.06 788.5 91.06 784.25 103.47 841.56 103.47 836.77 119.06 757.76 119.06 780.26 48.19 780.26 48.19"/><polygon class="cls-1" points="572.29 48.19 623.49 48.19 618.44 63.78 589.03 63.78 585.22 76 610.29 76 605.51 91.06 580.53 91.06 576.27 103.64 607.99 103.64 603.21 119.06 549.88 119.06 572.29 48.19 572.29 48.19"/><path class="cls-1" d="M538.69,48.19H517.08l-22.5,70.86h45.26L545,103.64H520.8l17.89-55.45Zm0,0H517.08l-22.5,70.86h45.26L545,103.64H520.8l17.89-55.45Zm0,0H517.08l-22.5,70.86h45.26L545,103.64H520.8l17.89-55.45Z"/><polygon class="cls-1" points="25.43 127.56 839.16 127.56 839.16 131.81 24.04 131.81 25.43 127.56 25.43 127.56"/></svg>